<mxfile host="app.diagrams.net" modified="2024-06-16T15:42:34.906Z" agent="Mozilla/5.0 (X11; Linux x86_64; rv:126.0) Gecko/20100101 Firefox/126.0" version="24.5.4" etag="GBjxzLkA8A_DX8GfMYUE" type="github">
  <diagram name="Page-1" id="PK5Bb69seK52KAMLMpYk">
    <mxGraphModel>
      <root>
        <mxCell id="0" />
        <mxCell id="1" parent="0" />
      </root>
    </mxGraphModel>
  </diagram>
</mxfile>
